# xmcd
#
# Track frame offsets: 
#        150
#        21852
#        33957
#        54603
#        63856
#        82837
#        100958
#        113977
#        128755
#        148913
#        167217
#        193528
#
# Disc length: 2838 seconds
#
# Revision: 0
# Processed by: cddbd v1.5.2PL0 Copyright (c) Steve Scherf et al.
# Submitted via: ExactAudioCopy v0.99pb3
#
DISCID=a00b140c
DTITLE=Tax, Wally - The Entertainer
DYEAR=2002
DGENRE=Blues
TTITLE0=The Entertainer
TTITLE1=It's Gonna Hurt Forever
TTITLE2=Cloudburst
TTITLE3=Liar
TTITLE4=Never Too far
TTITLE5=Still Can't Get You Off My Mind
TTITLE6=Miss Wonderful
TTITLE7=Yellow
TTITLE8=Fake It Alone
TTITLE9=AsA Matter Of Fact
TTITLE10=Mac mac Nasty
TTITLE11=You and I
EXTD=
EXTT0=
EXTT1=
EXTT2=
EXTT3=
EXTT4=
EXTT5=
EXTT6=
EXTT7=
EXTT8=
EXTT9=
EXTT10=
EXTT11=
PLAYORDER=
